<?xml version="1.0" encoding="utf-8" ?>
<svg baseProfile="full" height="50px" version="1.1" width="50px" xmlns="http://www.w3.org/2000/svg" xmlns:ev="http://www.w3.org/2001/xml-events" xmlns:xlink="http://www.w3.org/1999/xlink"><defs /><g id="lines" stroke="black" stroke-dasharray="1 1" stroke-width="0.3"><line x1="0" x2="0" y1="-0.5" y2="50" /><line x1="10" x2="10" y1="-0.5" y2="50" /><line x1="20" x2="20" y1="-0.5" y2="50" /><line x1="30" x2="30" y1="-0.5" y2="50" /><line x1="40" x2="40" y1="-0.5" y2="50" /><line x1="50" x2="50" y1="-0.5" y2="50" /><line x1="-0.5" x2="50" y1="0" y2="0" /><line x1="-0.5" x2="50" y1="10" y2="10" /><line x1="-0.5" x2="50" y1="20" y2="20" /><line x1="-0.5" x2="50" y1="30" y2="30" /><line x1="-0.5" x2="50" y1="40" y2="40" /><line x1="-0.5" x2="50" y1="50" y2="50" /></g><g id="cross_box_1_1"><rect fill="#000000" fill-opacity="0" height="10" stroke="black" stroke-width="0.6" width="10" x="10" y="10" /><line stroke="black" stroke-dasharray="1 1" stroke-dashoffset="75%" stroke-width="0.3" x1="10" x2="20" y1="10" y2="20" /><line stroke="black" stroke-dasharray="1 1" stroke-dashoffset="75%" stroke-width="0.3" x1="20" x2="10" y1="10" y2="20" /></g></svg>